<svg width="20" height="20" viewBox="0 0 20 20" fill="none" xmlns="http://www.w3.org/2000/svg">
<path fill-rule="evenodd" clip-rule="evenodd" d="M0.203369 5.6447C0.203369 2.63815 2.6415 0.200012 5.64806 0.200012H14.3596C17.3661 0.200012 19.8043 2.63815 19.8043 5.6447V14.3562C19.8043 17.3628 17.3661 19.8009 14.3596 19.8009H5.64806C2.6415 19.8009 0.203369 17.3628 0.203369 14.3562V5.6447ZM17.6173 3.46669C17.6173 2.8656 17.1295 2.37775 16.5284 2.37775C15.9273 2.37775 15.4394 2.8656 15.4394 3.46669C15.4394 4.06778 15.9273 4.55563 16.5284 4.55563C17.1295 4.55563 17.6173 4.06778 17.6173 3.46669ZM10.007 4.55581C13.0135 4.55581 15.4517 6.99394 15.4517 10.0005C15.4517 13.0071 13.0135 15.4452 10.007 15.4452C7.00041 15.4452 4.56228 13.0071 4.56228 10.0005C4.56228 6.99394 7.00041 4.55581 10.007 4.55581ZM6.73485 9.99931C6.73485 8.1951 8.19745 6.73249 10.0017 6.73249C11.8059 6.73249 13.2685 8.1951 13.2685 9.99931C13.2685 11.8035 11.8059 13.2661 10.0017 13.2661C8.19745 13.2661 6.73485 11.8035 6.73485 9.99931Z" fill="#36BA5F"/>
</svg>
