<svg width="20" height="23" viewBox="0 0 20 23" fill="none" xmlns="http://www.w3.org/2000/svg">
<path d="M19.0542 5.93278C17.8246 5.93278 16.69 5.52543 15.779 4.83824C14.7341 4.05047 13.9833 2.89491 13.7182 1.56302C13.6526 1.23394 13.6172 0.894341 13.6139 0.546326H10.1013V10.1443L10.0971 15.4016C10.0971 16.8071 9.18182 17.9989 7.91306 18.418C7.54484 18.5396 7.14717 18.5973 6.73308 18.5745C6.20454 18.5455 5.70924 18.386 5.27874 18.1285C4.36262 17.5806 3.74149 16.5866 3.72466 15.4496C3.69815 13.6725 5.13482 12.2236 6.91067 12.2236C7.26121 12.2236 7.59786 12.2808 7.91306 12.3848V9.76138V8.81833C7.58061 8.76909 7.24227 8.74342 6.90015 8.74342C4.95639 8.74342 3.13846 9.55139 1.83898 11.007C0.856791 12.107 0.267646 13.5104 0.17675 14.982C0.0576585 16.9153 0.765052 18.753 2.13692 20.1088C2.33849 20.3079 2.55016 20.4926 2.77151 20.6631C3.94769 21.5682 5.38563 22.0589 6.90015 22.0589C7.24227 22.0589 7.58061 22.0337 7.91306 21.9844C9.32784 21.7749 10.6332 21.1272 11.6634 20.1088C12.9292 18.8578 13.6286 17.1968 13.6362 15.4289L13.6181 7.57818C14.2219 8.04402 14.8822 8.42949 15.5909 8.72869C16.693 9.1937 17.8616 9.42935 19.0643 9.42893V6.87836V5.93194C19.0651 5.93278 19.055 5.93278 19.0542 5.93278V5.93278Z" fill="#36BA5F"/>
</svg>
