<svg width="24" height="19" viewBox="0 0 24 19" fill="none" xmlns="http://www.w3.org/2000/svg">
<path d="M23.3029 2.24153C22.4458 2.62158 21.5239 2.87862 20.557 2.99342C21.5442 2.40196 22.3018 1.46612 22.6593 0.349168C21.7356 0.897126 20.7121 1.29464 19.6237 1.5089C18.7516 0.580188 17.5092 -0.000213623 16.1334 -0.000213623C13.4938 -0.000213623 11.3529 2.14064 11.3529 4.78025C11.3529 5.15495 11.3954 5.51966 11.4774 5.86975C7.50439 5.67046 3.98169 3.7674 1.62373 0.87431C1.21231 1.5802 0.9763 2.40196 0.9763 3.27791C0.9763 4.93605 1.82088 6.39989 3.10289 7.25694C2.31964 7.23234 1.58201 7.01737 0.937797 6.65836C0.93744 6.67868 0.93744 6.699 0.93744 6.71896C0.93744 9.03522 2.58595 10.9672 4.77244 11.406C4.37172 11.5158 3.94854 11.5739 3.51324 11.5739C3.2045 11.5739 2.90539 11.5444 2.61376 11.4887C3.22197 13.3875 4.98706 14.7697 7.07943 14.8086C5.44304 16.0909 3.38204 16.855 1.14172 16.855C0.756688 16.855 0.375221 16.8325 0.00195312 16.7879C2.11642 18.1448 4.62983 18.9359 7.32934 18.9359C16.1223 18.9359 20.931 11.6517 20.931 5.33392C20.931 5.12678 20.9263 4.92036 20.9171 4.71573C21.8518 4.04192 22.6622 3.20019 23.3029 2.24153Z" fill="#36BA5F"/>
</svg>
