<svg width="36" height="36" viewBox="0 0 36 36" fill="none" xmlns="http://www.w3.org/2000/svg">
<path fill-rule="evenodd" clip-rule="evenodd" d="M36.0008 18.1982V17.9993V17.8011C28.0304 17.5599 24.3856 17.3611 21.4786 14.5218C18.6401 11.6154 18.4405 7.97066 18.2 -0.00012207H18.001H17.8021C17.5616 7.97066 17.3619 11.6154 14.5233 14.5218C11.6164 17.3611 7.97155 17.5599 0.0012207 17.8011V17.9993V18.1982C7.97155 18.4394 11.6164 18.6383 14.5233 21.4769C17.3619 24.384 17.5616 28.0287 17.8021 35.9995H18.001H18.2C18.4405 28.0287 18.6401 24.384 21.4786 21.4769C24.3856 18.6383 28.0304 18.4394 36.0008 18.1982Z" fill="#36BA5F"/>
</svg>
