<svg width="16" height="15" viewBox="0 0 16 15" fill="none" xmlns="http://www.w3.org/2000/svg">
<path fill-rule="evenodd" clip-rule="evenodd" d="M10.8102 3.83127C10.4876 3.841 10.1801 3.69443 9.98457 3.4377L7.93558 0.747908C7.40556 0.0521323 6.31286 0.23425 6.03715 1.06431L4.97171 4.27197C4.86993 4.57839 4.62646 4.81682 4.31797 4.91216L1.03904 5.92556C0.156328 6.19837 -0.00630014 7.37764 0.769619 7.87919L3.45778 9.61681C3.74771 9.80421 3.92047 10.1279 3.91479 10.4731L3.86261 13.6432C3.84789 14.5372 4.85769 15.0665 5.58448 14.5458L8.4661 12.4813C8.71801 12.3008 9.03936 12.2473 9.33616 12.3364L12.7304 13.3559C13.5867 13.6131 14.3706 12.7851 14.067 11.9442L12.9906 8.96207C12.8733 8.63735 12.9319 8.27514 13.1455 8.00391L15.1258 5.4889C15.6973 4.76304 15.1614 3.7001 14.238 3.72794L10.8102 3.83127Z" fill="#1A1A1A"/>
</svg>
